<svg xmlns="http://www.w3.org/2000/svg" width="320" height="520" viewBox="0 0 320 520" role="img">
  <defs>
    <linearGradient id="bg" x1="0" x2="1" y1="0" y2="1"><stop stop-color="#0f4c81"/><stop offset="0.55" stop-color="#2f80ed"/><stop offset="1" stop-color="#111827"/></linearGradient>
    <linearGradient id="desk" x1="0" x2="1"><stop stop-color="#f8fafc"/><stop offset="1" stop-color="#cbd5e1"/></linearGradient>
    <filter id="shadow" x="-20%" y="-20%" width="140%" height="140%"><feDropShadow dx="0" dy="8" stdDeviation="8" flood-color="#0f172a" flood-opacity=".35"/></filter>
  </defs>
  <rect width="320" height="520" fill="url(#bg)"/>
  <circle cx="270" cy="80" r="82" fill="#ffffff" opacity=".16"/>
  <rect x="34" y="116" width="252" height="190" rx="18" fill="#e2e8f0" opacity=".94" filter="url(#shadow)"/>
  <rect x="58" y="142" width="204" height="118" rx="10" fill="#ffffff"/>
  <path d="M80 230h64l24-42 34 52 22-28 38 48H80z" fill="#7dd3fc"/>
  <rect x="74" y="346" width="172" height="36" rx="8" fill="url(#desk)"/>
  <rect x="92" y="382" width="18" height="80" rx="5" fill="#cbd5e1"/><rect x="210" y="382" width="18" height="80" rx="5" fill="#cbd5e1"/>
  <circle cx="116" cy="318" r="28" fill="#f8fafc" opacity=".96"/><path d="M102 348c8-18 35-18 43 0" stroke="#f8fafc" stroke-width="18" stroke-linecap="round"/>
  <rect x="0" y="360" width="320" height="160" fill="#020617" opacity=".18"/>
</svg>
